<?xml version="1.0" encoding="utf-8"?>
<!-- Generator: Adobe Illustrator 18.0.0, SVG Export Plug-In . SVG Version: 6.00 Build 0)  -->
<!DOCTYPE svg PUBLIC "-//W3C//DTD SVG 1.1 Basic//EN" "http://www.w3.org/Graphics/SVG/1.1/DTD/svg11-basic.dtd">
<svg version="1.1" baseProfile="basic" id="Layer_1"
	 xmlns="http://www.w3.org/2000/svg" xmlns:xlink="http://www.w3.org/1999/xlink" x="0px" y="0px" width="612px" height="612px"
	 viewBox="0 0 612 612" xml:space="preserve">
<g>
	<rect y="0" fill="#3F3848" width="612" height="612"/>
	<g>
		<path fill="#E55028" d="M153.9,377.8c1.9-1.2,2.7-3.4,2.8-5.6c0.2-4.8-1.6-8.9-4-13c-5.4-9-12-17.2-16.9-26.5
			c-1.8,6.9-1.2,14.8,0.1,21.7s3.6,17.1,10,21.3C148,377,151.5,379.3,153.9,377.8z"/>
		<path fill="#99ADA4" d="M159.3,336.3c10.5-0.7,7.5-15.5,4.6-21.6c-3.4-7.3-8.1-13.7-13.1-20c-1.3,7.3-4,14.5-4.3,21.9
			C146.3,323.8,149.9,337,159.3,336.3z"/>
		<path fill="#FEE6D1" d="M177.3,435c9.9-2.6,6.4-18.2,4-24.9c-3.2-9.1-8-17.5-13.4-25.5c-2.2,9.7-6,19.3-5.9,29.2
			c0.1,5.8,1.3,12.4,5.4,16.8C169.8,433.2,173.5,436,177.3,435z"/>
		<path fill="#99ADA4" d="M141.6,422.2c5.9-1.9,3.8-14,2.2-18c-3.9-10-10.3-18.7-16.3-27.5c-0.7,7.9-1.8,15.9-0.9,23.8
			c0.5,4.7,1.6,9.6,4.2,13.6C132.5,416.8,137.6,423.5,141.6,422.2z"/>
		<path fill="#B3D3C2" d="M87.4,278.8c6.4,5.5,12.6,0.9,15.9-5.7c4.5-9.1,2.5-19.4-0.2-28.7c-4.4-15.6-9.8-32.2-5-48
			c-13.1,11.6-22.8,27.3-23.6,45.3C74,254,77.5,270.2,87.4,278.8z"/>
		<path fill="#FEE6D1" d="M44.8,181.8c-0.9,6.2-0.6,12.9,0.4,19c0.9,5.6,2.5,14.5,8.3,17.3c7.2,3.4,14.2-4.2,16.7-10.1
			c3.4-7.9,4.1-16.7,4.3-25.1c0.2-7.2-0.2-14.4-0.2-21.6c-0.1-8.9-0.3-17.8,1.9-26.3C62.4,148.2,47.7,161.5,44.8,181.8z"/>
		<path fill="#E55028" d="M179.7,338.4c-2.9,7.4-7.5,14.8-7.8,22.8c-0.3,7.5,5,20.9,14.9,17.8c9.4-3,8.7-14.2,5.2-21.5
			C188.7,350.6,183.9,344.8,179.7,338.4z"/>
		<path fill="#B3D3C2" d="M99.8,438.5c17.8,8.6,13.4-22.9,11.6-31.3c-3.3-15.5-9.5-30.1-14-45.2c-5.1,12.9-9.5,26.4-10.6,40.2
			C86,414.4,87.1,432.5,99.8,438.5z"/>
		<path fill="#FEE6D1" d="M84.2,354.9c1.4-18.2-1.8-36.2-5.2-54c-3.2,6.7-6,13.7-9.7,20.2c-4.1,7.1-8.9,13.9-12.6,21.2
			c-6.4,12.6-9.9,32.4,4.5,41.3C78.2,394.2,83.3,366,84.2,354.9z"/>
		<path fill="#E55028" d="M108.5,466.8c1.7,5.1,5.9,9.6,11.4,6.1c4-2.6,6.4-6.6,7.9-11.1c3.2-9.8,3.8-21.1-0.1-30.9
			C122.6,442.8,103.7,452.8,108.5,466.8z"/>
		<path fill="#99ADA4" d="M424.9,436c-3.8,3.4-6.7,8.6-8.2,13.2c-1.7,5.1-1.9,13.9,6.1,12.8C431.4,460.8,426.9,442.5,424.9,436z"/>
		<path fill="#FEE6D1" d="M403.8,487c4.2-9.4-0.5-22.3-3.7-31.4c-2.8-8-6.2-15.7-9.3-23.6c-7,13.2-17,27.9-11.4,43.2
			c2.1,5.7,5.6,12.6,11.2,15.6C395.5,493.5,401.5,492.2,403.8,487z"/>
		<path fill="#E55028" d="M204.2,418.5c3.6,3,9.8,4.7,10.9-1.8c1.1-7.2-4-14.4-7.5-20.2c-3.1-5.2-5.1-10.4-7.2-16
			c-3.5,8.2-4.8,17.8-2.5,26.4C198.9,411.2,200.7,415.6,204.2,418.5z"/>
		<path fill="#E55028" d="M347.9,403c1.3-4.1-1.1-9.6-5.1-11.3c-4.5-1.9-10-0.9-14.6,0.2c-6.1,1.4-14.6,5.3-21.5,4.4
			c4.1,6.4,13.3,9.7,20.3,11.1C332.3,408.4,345.6,410.2,347.9,403z"/>
		<path fill="#E55028" d="M410.8,430.8c10.9,0.2,6.1-14.1,2.4-19.3c-4.6-6.4-11-12.3-18.5-15.3C396.3,407.8,395.1,430.3,410.8,430.8
			z"/>
		<path fill="#B3D3C2" d="M111.4,204.1c0.6,8.2,6.2,21.1,16.5,14.6c13.8-8.7,0.3-28.4-3.7-41.5C118.2,185.4,110.6,193.2,111.4,204.1
			z"/>
		<path fill="#E55028" d="M354.9,469.3c10.5-1.2,12.9-13.5,11.4-22.2c-1.7-9.3-7.5-14.9-14.1-20.3c2.4,5.7,1.5,12.1-1.4,18.9
			C347.9,452.8,340.3,471,354.9,469.3z"/>
		<path fill="#99ADA4" d="M230.9,379.5c0.5-3.5-0.7-7.4-2.5-10.4c-5.4-8.9-13.9-17.1-23.5-21.4c3.2,11.3,2,30.8,14.7,35
			C223.3,384,230,384.9,230.9,379.5z"/>
		<path fill="#B3D3C2" d="M255.1,373.2c15.3-0.1,12.8-16.5,7-25.8c-7.2-11.4-19.9-18.8-32.5-23C229.7,341.8,232,373.3,255.1,373.2z"
			/>
		<path fill="#E55028" d="M290.6,405.8c2.5-3.9,1-10.1-2.1-13.3c-3.9-4-9.5-5.8-14.9-6.8c-9.4-1.9-18.9-1.5-28.4-2.1
			c4.2,7.3,13.3,13,20.2,17c4.6,2.7,9.4,5.2,14.5,6.5C283,407.8,288.5,409,290.6,405.8z"/>
		<path fill="#B3D3C2" d="M322.1,440.1c4,2.9,8.7,5.7,13.8,4.2c2.6-0.8,5.8-2.3,4.1-5.5c-3.8-6.9-12.7-11.6-19.4-15.2
			c-5.6-3.1-12.3-7.1-18.8-8.4c1.6,4.1,4.3,7.8,6.9,11.2C312.6,431.5,317,436.3,322.1,440.1z"/>
		<path fill="#99ADA4" d="M308.4,379.8c9.2-17.4-18.3-17.7-29.3-24.8c2.1,6.8,7.2,13.4,11.7,18.3
			C293.9,376.5,304.3,387.3,308.4,379.8z"/>
		<path fill="#E55028" d="M214.8,306.3c6.9,3.2,14.4,4.9,22,5.6c-4.5-3.8-8.2-8.5-12.4-12.6c-2.9-2.8-5.9-5.7-9.6-7.4
			c-2.5-1.2-9.8-3.7-11.5,0C200.5,298.1,210.5,304.3,214.8,306.3z"/>
		<path fill="#B3D3C2" d="M175.7,269.5c-9.8-0.2-18.7,6.5-28.3,5.9c10.2,11.7,33.6,27.8,43.6,11.9
			C197.6,276.5,185.2,269.6,175.7,269.5z"/>
		<path fill="#FEE6D1" d="M252.7,257.8c12.9-0.6,10.3-15.1,4.7-22.5c-7.6-10-20-14.6-31.6-18.5C229.5,232,232,258.8,252.7,257.8z"/>
		<path fill="#B3D3C2" d="M221.4,282.6c4.8,0.3,11.6-1.1,11.7-7.2c0.1-6.2-4-12-8.2-16.3c-7.6-7.7-17.3-12.7-26.1-18.9
			C201.3,257,198.7,281.2,221.4,282.6z"/>
		<path fill="#99ADA4" d="M146.1,192.7c2.2,6.8,0.8,13.5,1.6,20.8c0.5,4.5,2.2,10.1,7.4,11.2c2.5,0.5,4.6-0.3,5.4-2.8
			C163.6,211.9,156.6,195.8,146.1,192.7z"/>
		<path fill="#99ADA4" d="M214.1,227c4-7.2-4.7-15.3-10.4-18.1c-8.6-4.2-19.2-6.5-28.5-3.7c6,4.1,10.5,10.2,15.6,15.2
			c3.2,3.1,6.8,6.6,11.2,8C205.3,229.5,212,230.8,214.1,227z"/>
		<path fill="#E55028" d="M215.6,187.5c-2.3-2.7-5.7-6.1-9.6-5.8c-1.7,0.1-5.8,0.5-5.1,3.2c1.3,5.3,7.3,9.8,11.5,12.9
			c3.5,2.6,7.7,5.9,12.2,7.2c-0.3-2.4-1.6-5-2.4-6.8C220.4,194.4,218.4,190.6,215.6,187.5z"/>
		<path fill="#E55028" d="M334,315.2c5.5-2,7-6.8,3.7-11.7c-2.5-3.8-6.1-6.3-10.2-8.3c-9.1-4.5-19.2-7-29.2-8.7
			C304.9,300,316.6,321.6,334,315.2z"/>
		<path fill="#99ADA4" d="M120.1,328.6c-2.3-5.9-5.3-11.5-7.9-17.3c-3.1-7.1-4.4-14.9-5.8-22.5c-5,13.1-7.5,28-5.8,41.9
			c0.6,5.2,1.5,10.4,3.2,15.3c1.3,3.7,3.1,9,7,10.8c5.3,2.4,11.4-4,12.4-8.7C124.7,341.5,122.5,334.6,120.1,328.6z"/>
		<path fill="#B3D3C2" d="M308.7,278.9c13.7-1.1-1.6-22.4-8.2-30.9C298.4,258.4,295.6,279.9,308.7,278.9z"/>
		<path fill="#FEE6D1" d="M136.8,302.3c6.5-11.2-6.2-20.3-14.2-27.6c-1.7,6.8-3,14.5-1,21.3c1.1,3.7,3.3,8.2,7.5,9.3
			C132.1,306.1,135.2,305.1,136.8,302.3z"/>
		<path fill="#E55028" d="M114.2,233.5c1.1,8.7,4.2,18.7,10.7,24.8c7.4,6.9,19.2,6.9,24.2-2.9c4.5-8.8,2.9-22.7-9.3-23.3
			C131.4,231.7,122.5,235.4,114.2,233.5z"/>
		<path fill="#B3D3C2" d="M299.4,338c4,1.4,11,1.9,11.2-4c0.1-4.4-1.6-8.8-3.6-12.6c-5.8-10.9-15.3-18.7-25.2-25.7
			c1.2,7.1,2.2,14.3,4.1,21.2C287.8,324.4,291.2,335.1,299.4,338z"/>
		<path fill="#E55028" d="M277.8,339c9.4-0.9-4.2-13.7-6.8-15.5c-5.1-3.7-10.7-6.7-16.3-9.7C259,324.2,265.5,340.2,277.8,339z"/>
		<path fill="#FEE6D1" d="M269.1,205.2c2.1-10.6-8.8-18.7-16.4-23.9c-7-4.8-14.7-8.8-21.4-14c-0.7,13.9,1.9,30.4,12.7,40.3
			C251.5,214.5,266.3,219.6,269.1,205.2z"/>
		<path fill="#99ADA4" d="M216.3,168.8c4.7-1.7,5.3-7.1,3.5-11.3c-2.1-5.2-6.4-9-11.1-11.8c-8.7-5.2-18.4-8.1-28.3-10.1
			c4.8,5.5,7.8,12.3,11.6,18.5c2.6,4.2,5.6,8.5,9.9,11.3C205.8,167.8,211.7,170.5,216.3,168.8z"/>
		<path fill="#B3D3C2" d="M173.7,193.9c10.1,1.8,13.8-12.5,13.3-20.1c-0.8-11.8-9.8-23.7-21.6-26.4c3.2,6.4,1.3,14.7,0.2,21.5
			C164.3,177.5,161.7,191.8,173.7,193.9z"/>
		<path fill="#FEE6D1" d="M215.7,335.8c7.9-5.6-5-16-9.7-18.5c-10.4-5.5-22.1-9.6-33.9-10.2c4.5,7.5,9.3,15,15.6,21.1
			c3.7,3.6,7.9,7,12.9,8.5C205,338.1,211.6,338.8,215.7,335.8z"/>
		<path fill="#FEE6D1" d="M181.5,229c-7-9.3-15.5,2.8-16.6,9.9s-0.7,14.1-4.2,20.4C174.6,260.2,191.1,241.8,181.5,229z"/>
		<path fill="#B3D3C2" d="M287.1,278.8c0.9-4-0.4-7.9-2.5-11.3c-3.6-5.8-8.6-10.4-13.1-15.4c-0.6,4.1-0.5,8.5-0.1,12.5
			c0.5,4.8,1.1,12.4,4.9,15.9C279.9,283.5,285.8,284.5,287.1,278.8z"/>
		<path fill="#99ADA4" d="M438.4,499.2c-0.5,5.2-1.4,10.4-3.2,15.4c-2.2,6.5-6,12.5-7.8,19.1c-1.1,4.1-2.7,11.7,1.2,14.9
			c3.9,3.2,10.9,0.8,13.4-3.2c5.3-8.4,2.8-20.8,0.8-29.9C441.7,510,440.1,504.6,438.4,499.2z"/>
		<path fill="#99ADA4" d="M262.7,303.9c12.9-0.1,8.8-15.4,2.5-21.4S251,272.4,243,269.2C244.2,281.5,246.8,304,262.7,303.9z"/>
		<path fill="#B3D3C2" d="M32.4,66.6c-7.6-6.4-14.8,11.3-15.6,16.6c-1.6,11.1,3.1,21.6,8.8,30.9c0.6-6.5,3.9-12.9,6.4-18.8
			C35.6,87,41.1,73.9,32.4,66.6z"/>
		<path fill="#E55028" d="M77.1,81.4c-0.9,9.4,1.8,18.4,2.5,27.7C84,103.6,88.2,97.9,92,92c2.8-4.4,5.6-8.9,7.7-13.7
			c1.2-2.8,3.5-8,1.6-11c-2.6-3.9-10.4-1.7-13.7-0.3C81.3,69.6,77.7,74.8,77.1,81.4z"/>
		<path fill="#99ADA4" d="M127.4,108.4c2-2.4,4.9-9,0.7-10.9c-6.4-2.8-16.5,1.4-22.1,4.5c-9.4,5.2-14.5,15.4-16.7,25.7
			c6-6.8,14.7-10.1,23.4-12.5C117.7,113.9,123.9,112.5,127.4,108.4z"/>
		<path fill="#E55028" d="M33.9,171.1c-0.3-9.1-1-18.8-4.9-27.2c-3.1-6.7-7-13.2-11.7-18.9c-4.2-5.3-9.9-11.9-16.8-13.3
			c-0.2,0-0.3-0.1-0.5-0.1v42.1c1,0.6,2,1.1,3,1.6C13.1,160.3,25.1,163.8,33.9,171.1z"/>
		<path fill="#B3D3C2" d="M61.5,128.9c4.9-7.2,10.9-17.8,5.2-26.3c-3.7-5.5-9.5-8.2-15.5-4.5c-4.3,2.7-7.9,6.7-10,11.4
			c-5.6,12.3,0.5,26.9,3.8,39.2C50.5,142.1,56.6,136,61.5,128.9z"/>
		<path fill="#E55028" d="M203.4,103.2c-4.7,3.3-9.7,7.6-15.5,8.7c-4.1,0.8-7.7,0.3-11.3-1.1c4.4,5.6,10.8,10,17,13
			c7.4,3.6,18.7,6.8,25.1-0.4c4-4.6,6.3-12,3-17.5C217,98.5,209.9,98.7,203.4,103.2z"/>
		<path fill="#99ADA4" d="M320.6,247.3c4,0,8-1.2,6.5-6.1c-0.9-3.1-2.7-6.1-4.8-8.6c-5.8-6.6-13-10.4-20.9-13.6
			c2.1,4.9,3.6,10.1,5.8,14.9C309.6,239.3,313.6,247.3,320.6,247.3z"/>
		<path fill="#E55028" d="M289.4,48.5c4.7-1.5,8.5-4.7,9.8-9.6c0.9-3.5,1.8-10.5-1.6-13.2c-4.9-4-15.3,4.8-19.1,7.5
			c-3.5,2.5-8.5,7.6-13.3,8.9C271.2,48.2,281.4,51,289.4,48.5z"/>
		<path fill="#99ADA4" d="M277,140.9c10.2-0.6,9.5-13.7,7.8-20.7c-1.5-6.1-3.8-12-7-17.3c-2.8,6.1-6.1,12-7.9,18.5
			c-1,3.5-2,7.6-1.1,11.3C269.8,136.4,272.6,141.1,277,140.9z"/>
		<path fill="#99ADA4" d="M210.4,83.8c6.2,4.7,15.2,5,22.4,2.9c4.2-1.2,8.7-3.1,11.7-6.5c3.1-3.4,5.7-9.5,3.1-13.9
			c-2.9-4.9-9.3-5.6-14.1-3c-4,2.2-6.5,5.5-9.1,9.1C220.7,77.4,216.7,82.8,210.4,83.8z"/>
		<path fill="#B3D3C2" d="M255.5,84.9c-2.2,4.4-5.7,7.8-9.1,11.3c-3.5,3.7-7.4,7.7-8.4,12.9c-0.9,5,0,12.6,4.2,16.1
			c8.3,6.9,17.3-7.3,19.5-13.7c4.7-13.1,4.2-27.2-2-39.6C258.4,76.2,257.6,80.8,255.5,84.9z"/>
		<path fill="#E55028" d="M15.8,524.6c4.2-15.6,3.6-31.9,3.1-48c-6,5.8-12.7,10.9-18.9,16.5v55.2c1.1-0.5,2.1-1.1,3.1-1.8
			C9.8,541.3,13.7,532.6,15.8,524.6z"/>
		<path fill="#E55028" d="M29.9,21.5C24.3,13,15.4,23.6,12,28.9c-5.3,8.4-5.8,18.6-1.9,27.6c2.3-5.2,7.7-9.4,11.5-13.3
			C26.9,37.9,35.2,29.5,29.9,21.5z"/>
		<path fill="#B3D3C2" d="M11.4,560.1c7.6,7.7,16,0.5,19.4-7c2.9-6.5,4.3-13.5,6.1-20.4c-5.2,3-10.3,6.4-15,10.1
			C18.5,545.5,6.2,555,11.4,560.1z"/>
		<path fill="#B3D3C2" d="M14.9,315.5c-4.8,1.4-10,3.5-14.9,6.2v44.7c3.3-3.4,6-7.2,7.3-9.9C13.8,343.8,14.8,329.4,14.9,315.5z"/>
		<path fill="#B3D3C2" d="M52.2,492.8c1-11.3,0-22.5-1.6-33.7c-4.2,7.9-9.7,15-13.4,23.2c-2.3,5-4.1,10.6-3.8,16.2
			c0.3,5,1.7,11.6,5.3,15.3C47.7,523.1,51.8,497.5,52.2,492.8z"/>
		<path fill="#99ADA4" d="M55.3,444.5c1.7,3.2,5.3,8.7,9.8,7.5c10.8-2.9,7.4-22.6,5-29.9c-3.8-11.9-10.8-22.4-20.2-30.6
			c-1.4,11.4-1.8,23.3,0,34.7C50.9,432.5,52.3,439,55.3,444.5z"/>
		<path fill="#99ADA4" d="M272,173.9c4.5,1.7,10,2.6,13.5-1.6c2.1-2.5,4.6-6.6,3.2-10c-2.7-6.6-13.6-7.2-19.5-7.1
			c-6.3,0.1-14,1-19.3,5C257.4,164.5,263.8,170.8,272,173.9z"/>
		<path fill="#FEE6D1" d="M2.9,77.1C2.7,75.2,1.7,69.9,0,64.7v35.8c2.5,1.3,5,2.4,7.6,3.3C3.7,95.9,4,85.4,2.9,77.1z"/>
		<path fill="#99ADA4" d="M20.3,287.3c9.5-1.7,16.3-18.6,20.4-29.4c2.1-5.5,4-11.1,5.5-16.8c1.3-4.8,2.6-9.6,2.4-14.5
			c-8.5,10.8-22.9,13.9-33.4,24.2C2.5,263.3,7.5,289.8,20.3,287.3z"/>
		<path fill="#99ADA4" d="M3.8,296.8c-0.6-18.3-6.6-36.1,1.7-52c-1.1,0.4-2.1,0.9-3.2,1.3c-0.8,0.3-1.5,0.7-2.3,1.1v58.5
			C2.5,304.1,4,301.2,3.8,296.8z"/>
		<path fill="#99ADA4" d="M582.8,288.3c1,11.4,9.4,19.9,20.7,19.8c3.3,0,6.3-0.7,8.5-2.2v-58.5C596.1,254.9,581.2,269,582.8,288.3z"
			/>
		<path fill="#FEE6D1" d="M3.7,199.3c10.9-1.1,20.4-6.1,27.4-14.5c-7.9-2.5-14.5-7.9-22.5-10.2c-2.7-0.8-5.7-1-8.6-0.6v25.5
			C1.3,199.4,2.6,199.4,3.7,199.3z"/>
		<path fill="#E55028" d="M37.6,217.7c-10.4-6.6-25.6-6.5-37.2-4.4c-0.1,0-0.2,0-0.3,0.1v24.5c1.5-0.3,2.7-0.7,3.6-0.9
			C15.8,233.2,28.7,227.2,37.6,217.7z"/>
		<path fill="#99ADA4" d="M594.2,42.5c-9.9,2.1-18.3-2.9-27.7-6c-3.1-1-10.3-2.9-12.3,1.2c-1.9,4,1.8,9.8,4.7,12.5
			C569.1,60,588.8,55.2,594.2,42.5z"/>
		<path fill="#E55028" d="M555.7,156.9c-0.5,6.8-0.3,17.8,6.6,21.6c4.5,2.5,9.4-0.1,11.4-4.7c1.9-4.4,1-9.1-0.5-13.5
			c-2.9-8.6-8.2-15.9-13.8-22.9C557.8,143.8,556.2,150.3,555.7,156.9z"/>
		<path fill="#E55028" d="M575.2,140.7c2.5,2.3,7.3,3.7,8.5-0.8c0.6-2.4,0.6-4.8-0.2-7.2c-1.9-5.5-5.1-10.1-9.1-14.1
			C572.4,125.5,569.8,135.8,575.2,140.7z"/>
		<path fill="#B3D3C2" d="M585.1,114.4c2.3,0.6,4,0.1,4.3-2.4c1.4-9.6-4.7-18.6-6.8-27.6c-3.2,6.3-4.8,14.6-4,21.4
			C579.2,109.9,580.8,113.3,585.1,114.4z"/>
		<path fill="#E55028" d="M576.8,188.8c3.2,4.9,7-2.4,7.5-5.3c0.4-2.7,0.5-5.4,0.5-8.1C580.3,177.9,573.5,183.8,576.8,188.8z"/>
		<path fill="#B3D3C2" d="M590.3,155.8c-2,0.4-4.9,1.2-6,3.3c-1,2-0.3,3.9,1.7,4.8c4.6,2,13.7,1.4,17.9-2.3
			C600.2,158,595.8,154.6,590.3,155.8z"/>
		<path fill="#E55028" d="M550.5,251.9c3.8-5.5,8.1-10,12.8-14.9c2.9-3,6.3-6.6,7.2-10.9c0.5-2.5,0.7-8.7-3.5-7.8
			c-5.1,1.2-10.2,5.7-13.1,10C549.6,234.8,550.7,244.1,550.5,251.9z"/>
		<path fill="#B3D3C2" d="M508.8,342.6c1.7-4.7,5.1-13.8,0.9-18.2c-6.5-6.6-12.2,3.9-13.7,9.6c-2.2,8.1,1.1,15.6,5.7,22.2
			C504.8,352.3,507.1,347.2,508.8,342.6z"/>
		<path fill="#E55028" d="M596.8,125.7c-4.4,13.5,4.5,22,15.2,27.9v-42.1C603.8,110.3,598.9,119,596.8,125.7z"/>
		<path fill="#B3D3C2" d="M538.3,351.2c-0.4,3.8-2.4,16.6,3.1,18.1c10.9,2.8,3-19.2-1.2-29.3C539.4,343.8,538.7,347.5,538.3,351.2z"
			/>
		<path fill="#B3D3C2" d="M289.6,197.9c4.2,4.4,10.5,10.9,17.2,10.2c5.3-0.5,8.8-4.7,5.5-9.6c-2.3-3.4-5.5-6-9.2-7.8
			c-7.3-3.5-15.4-4.7-23.5-5C282.9,190,286,194.1,289.6,197.9z"/>
		<path fill="#FEE6D1" d="M545.8,303.2c-4.2,7.6-2.2,16.9,0.8,24.7c3-4.4,6.4-8.5,9.3-13c3.2-4.9,9.4-13.8,5.1-19.7
			C556.2,288.8,548.1,299.2,545.8,303.2z"/>
		<path fill="#99ADA4" d="M443,49.1c6.7-0.2,0-12.9-1.7-15.3c-3.3-4.7-7.3-8.7-11.6-12.5c-0.1,4.9,0.3,9.9,1.7,14.6
			C432.8,40.7,436.8,49.4,443,49.1z"/>
		<path fill="#FEE6D1" d="M600.2,55.3c-6.1,6.2-8.3,18.1-5.5,26.2c2.9,8.5,9.5,14.8,17.3,18.9V64.6C609.5,57,605.5,49.8,600.2,55.3z
			"/>
		<path fill="#99ADA4" d="M388.2,110.3c16.4-0.5,20.2-25.8,19.8-38c-0.5-15.5-4.8-30.9-12.4-44.4c-4.7,14.6-13.5,27.5-18.5,42.1
			c-2.6,7.7-4.9,16.5-3.3,24.7C375.1,101.6,379.8,110.5,388.2,110.3z"/>
		<path fill="#E55028" d="M349.3,96.3c7.7,1.4,7.7-13.3,6.8-17.9c-1.9-9.1-6.4-17-10.3-25.3c-1.6,6.7-4.4,13.1-5.7,19.8
			c-0.9,4.4-1.6,9.4,0,13.7C341.4,90.6,344.9,95.5,349.3,96.3z"/>
		<path fill="#FEE6D1" d="M85.4,513.5c4.7-5.7,6.8-13.7,7.5-20.9c1.5-15.4-2.1-30.4-5.7-45.2c-3.5,11-9.8,20.8-14.1,31.6
			c-2.5,6.2-4.5,12.8-4.3,19.6c0.2,5.5,0.9,13.7,5.5,17.6C78.1,519.2,82.6,517,85.4,513.5z"/>
		<path fill="#E55028" d="M420.6,61.9c1.9,3.1,6.1,7.6,10.2,7.5c6-0.1,0.6-13.7-0.8-16.2c-3.9-7.2-9.9-12.5-16-17.7
			c1.9,5,2.3,10.6,3.2,15.8C417.9,54.9,418.7,58.8,420.6,61.9z"/>
		<path fill="#E55028" d="M541.2,72.2c-2.6,3.9-3.3,10.4-0.4,14.4c3.1,4.1,8.7,5,13.5,4.7c12.6-0.9,24.2-10.4,26.6-23.1
			c-5,1.9-11.3,1-16.2,0.5C558.1,68.1,545.7,65.5,541.2,72.2z"/>
		<path fill="#FEE6D1" d="M462.2,93c8.6-5,7.8-17.4,5.9-25.7c-1.8-8.1-4.9-16.3-11-22.2c-2.5,8.2-7.8,15.5-9.8,23.9
			c-1.3,5.5-1.2,11.2,1.8,16.2C451.5,89,456.7,96.1,462.2,93z"/>
		<path fill="#E55028" d="M451.2,459.3c-1.5-4.9-3.4-9.9-6.2-14.3c-5.1,7.2-12.8,16.8-10.5,25.7c1.1,4.1,3.5,9.6,8.1,10.8
			c3.3,0.8,7.4-0.1,9.1-3.3C454.7,472.6,452.9,465.1,451.2,459.3z"/>
		<path fill="#99ADA4" d="M486.2,136.6c-1.2,4.9,1.2,10.5,4.8,13.8c11.6,10.6,24.5-20.3,27.5-30.2c-8,1-16.5,3-23.5,7
			C491.4,129.3,487.3,132.2,486.2,136.6z"/>
		<path fill="#E55028" d="M305.6,101.8c-6.3,6.6-8.1,16.4-7.5,25.4c0.4,6.2,3.8,15,9.4,18.4c4.3,2.6,8.1-0.5,9.9-4.6
			c2.4-5.5,0-10.6-2.9-15.3c-2.3-3.7-4.4-7.2-5.7-11.4C307.5,110.2,306.5,106,305.6,101.8z"/>
		<path fill="#99ADA4" d="M483.4,391.8c6.1-6.4,17.7-24.8,5.2-31.2c-8.7-4.5-20.7,0.6-26.6,7.5c-12.1,14.3-7.6,31.6-3.5,47.9
			C465.1,406.3,475.5,400.1,483.4,391.8z"/>
		<path fill="#99ADA4" d="M368.5,507c2.6-3.8,4.8-8.2,4.9-12.9c0.1-4.2-1-10.9-5.4-12.9c-9.8-4.6-13.8,11.7-15,17.9
			c-1.3,6.7-3,13.4-8,17.9C353.8,519.3,363.3,514.3,368.5,507z"/>
		<path fill="#FEE6D1" d="M9.4,455c2.6-11.6-0.3-23.7-4.1-34.8c-1.8,2.7-3.5,5.4-5.2,8.1V471C5.3,469.5,8.4,459.5,9.4,455z"/>
		<path fill="#FEE6D1" d="M0,381.9v16.6c1.6-6.4,2.9-12.9,3.5-19.4C2.3,380,1.1,380.9,0,381.9z"/>
		<path fill="#E55028" d="M522.9,422.5c3.6-8.3,7-20.3,2.4-28.9c-3-5.6-10.3-10.1-16.6-6.9c-5.4,2.8-9.2,8.7-9.5,14.7
			c-0.4,7.2,2.6,14.5,4.3,21.4c1.5,6,2.6,12,2.8,18.2C514.3,438.5,519.8,429.5,522.9,422.5z"/>
		<path fill="#E55028" d="M521,494.6c4.6-9,7.4-19.8,7.3-29.7c0-4.9-2-9.9-5.9-13.1c-4.4-3.7-9.4-2.9-11.4,2.9
			c-2.7,8,2.5,17.3,5.5,24.5C518.3,483.8,521.1,489.3,521,494.6z"/>
		<path fill="#FEE6D1" d="M558,409.9c0.3-8,0.7-16.9-4-23.4c-1.9-2.6-5.7-6.4-9.3-5.3c-3.8,1.1-4.8,5.9-4.6,9.4
			C541,401.3,552.6,402.8,558,409.9z"/>
		<path fill="#99ADA4" d="M566.8,370.3c2.4-3.3,6-7.7,6.1-12c0.1-3.2-2.7-6.4-6-4.2c-2.2,1.5-3.9,3.7-5,6
			c-2.8,5.7-2.4,11.4-0.5,17.1C563.1,374.8,565,372.6,566.8,370.3z"/>
		<path fill="#99ADA4" d="M502.9,196.2c-0.5,5.4,1,21.1,10.3,17.2c8.1-3.4,5.7-13.3,3.2-19.7c-2.2-5.9-5.3-11.5-9.4-16.2
			C505.8,183.7,503.6,189.8,502.9,196.2z"/>
		<path fill="#99ADA4" d="M545.7,420.4c-7.4-3.6-12,6.9-12.9,12.6c-1.2,7.8,3.7,14.6,6.6,21.6C546.5,446.5,558.7,426.8,545.7,420.4z
			"/>
		<path fill="#E55028" d="M37,391c0-16.2-4.5-31.6-8.9-47c-4.3,12.3-11.9,23.1-16.1,35.4c-2.6,7.4-4.2,15.6-2.4,23.5
			c1.2,5.1,3.8,11.1,9.2,13C33.3,420.9,37,400.9,37,391z"/>
		<path fill="#99ADA4" d="M330.3,145.8c0.3,3.8,5.3,17.6,9.7,8.6c2.5-5,1.6-12.1,0.9-17.4c-0.5-4.5-1.3-9.2-2.5-13.6
			C334,129.7,329.7,138.4,330.3,145.8z"/>
		<path fill="#E55028" d="M23.9,444.2c-1.2,3.8-2.4,9.1,0,12.8c1.8,2.7,6.7,5.4,9.9,3.3c5.7-3.8,4.6-15.3,4.4-21.1
			c-0.2-5.1-1.3-10.7-0.9-15.9C30.8,427.8,26,437.2,23.9,444.2z"/>
		<path fill="#E55028" d="M291.4,242.6c3.6-4.6-1.7-14.4-3.8-18.6c-2.1-4.2-4.4-8.4-7-12.3c-1.7,6.6-5.2,12.9-5.8,19.8
			c-0.4,5.2,1.5,9.7,6.8,11.4C284.2,243.7,289.3,245.2,291.4,242.6z"/>
		<path fill="#99ADA4" d="M457.3,141.9c9.5-2.8,10.1-14.4,5.8-21.8c-3.8-6.5-9.5-11.6-14.8-16.8c1.5,5.9,0.4,12-0.5,18
			C446.9,127.5,445.8,145.4,457.3,141.9z"/>
		<path fill="#E55028" d="M469.2,175.3c4,3.9,8.6,1.7,10.3-3.3c1.2-3.6,0.8-7.7,0.2-11.3c-1.1-6-3-11.8-5.5-17.4
			c-2.8,4.2-5,9.1-6.3,13.9C466.2,162.7,464.4,170.7,469.2,175.3z"/>
		<path fill="#E55028" d="M330.9,94.7c-1.5-6-3.6-11.7-5.7-17.5c-2.4,5.4-5.4,10.6-6.7,16.3c-1.3,6.2,0.2,18.6,8.1,20.3
			C335.1,115.6,331.8,98.6,330.9,94.7z"/>
		<path fill="#E55028" d="M58.1,318.1c3.2-8.7,4.8-17.8,5.2-27c0.7-17-1.9-34-5.9-50.5c-1.6,8.1-4.1,15.9-7.3,23.6
			c-3.3,8-8,15.3-12.2,22.9c-4.5,8.1-9.1,16.9-9.6,26.3c-0.4,7.4-0.2,19.7,9.4,21.1C47.7,336.1,55.1,326.3,58.1,318.1z"/>
		<path fill="#FEE6D1" d="M109.7,169.5c9.1-4.8,20.9-11.6,19.9-23.7c-0.6-6.6-3.7-14.8-11.3-15.3c-6.4-0.5-13,2.5-17.8,6.6
			c-13.7,11.6-9.8,29.4-11.8,45.3C94.2,176.5,102.9,173.2,109.7,169.5z"/>
		<path fill="#E55028" d="M223.6,141.1c1.4,19.8,26.6,8.6,34.1-2C248.3,138.1,222.7,128.2,223.6,141.1z"/>
		<path fill="#E55028" d="M138.3,176.5c1.5,2.8,4.2,5.7,7.6,5.6c9.5-0.3,9.7-13.3,8-19.9c-1.9-7.4-5.6-14.8-11.5-19.9
			c0.4,6.8-2.6,13-4.5,19.6C136.7,166.5,135.8,171.9,138.3,176.5z"/>
		<path fill="#E55028" d="M573.4,422.5c-3.7,1.6-6.9,4.6-8.8,8.2c-5.3,9.9-4.4,19.8,0.1,29.5c4.6-4.1,9.6-7.8,13.9-12.3
			c4.9-5,11.5-12.9,6.9-20.2C582.8,423.5,578.6,420.2,573.4,422.5z"/>
		<path fill="#FEE6D1" d="M311.4,545.6c0.6-4.3,2.3-8.6,2.9-12.9c0.5-3.7,0.5-8.3-3.4-10.2c-1.5-0.7-4.8-2.3-5.6,0.2
			c-1.3,4.4,0.6,9.8,2.1,13.9C308.4,539.5,309.6,542.8,311.4,545.6z"/>
		<path fill="#E55028" d="M400.1,541c-3.2,3.6-4,9-4.2,13.7c-0.5,10.7,3.1,19.3,10.7,26c-0.7-4.3,1.4-9.7,2.7-13.3
			c2.2-6.3,8.2-18,3.6-24.4C410.2,539.2,403.5,537.1,400.1,541z"/>
		<path fill="#E55028" d="M226.5,529.5c3.7-13.2,7.1-28.4,3.9-41.9c-1-4.1-2.7-10.5-7-12.4c-4.7-2-10.4,3.7-11.4,8
			c-2.1,9,2.8,19.5,6.3,27.6C221,517,224.2,523.1,226.5,529.5z"/>
		<path fill="#99ADA4" d="M134.9,534.5c2.7-8.1,3.7-16.8,3.7-25.3c-3.5,3.8-7.6,7.4-11,11.2c-3.3,3.7-6.6,7.5-9.2,11.7
			c-1.7,2.7-4.4,7-3.4,10.4c1.2,3.9,7.4,4.9,10.8,3.7C130.7,544.5,133.4,539.2,134.9,534.5z"/>
		<path fill="#99ADA4" d="M460.7,546.3c-8.7,0.4-10.4,16.4-9.7,22.8c1.1,11.2,8.9,19.1,15,27.9c0.6-7.9,4.1-15.9,5.5-23.5
			c1-5.3,1.9-11.2,0.3-16.4C470.5,552.5,466.2,546,460.7,546.3z"/>
		<path fill="#FEE6D1" d="M201,520.5c0.3-11.2-0.3-25.5-11.4-31.6c-11.4-6.3-12.7,11.7-11.5,18.9c2.4,14.8,11.2,27.3,21.5,37.9
			C199,537.3,200.8,528.8,201,520.5z"/>
		<path fill="#E55028" d="M589.3,230.4c-3.6,11.5,13.8,9.5,22.7,7.5v-24.5C603,215.1,592.2,221,589.3,230.4z"/>
		<path fill="#E55028" d="M575.7,464.5c-3.8,7.6,0.6,17.5,3.7,24.7c2,4.6,4.5,9.2,6.1,14c2.7-9.5,6.4-19.2,4.2-29.1
			C588.5,468.2,581.7,452.5,575.7,464.5z"/>
		<path fill="#FEE6D1" d="M521.9,548.5c-0.2-6-3.5-13.7-9-16.7c-10.9-6.1-20.4,10.8-22.9,19.1c-4.1,13.9,1.7,27.6,8.4,39.6
			c4.7-9,12.2-16.4,17.5-25.1C519.1,560.3,522.1,554.5,521.9,548.5z"/>
		<path fill="#E55028" d="M528.9,502.8c-2.7,2.7-4.6,6.2-5.3,10c-1.8,9.4,2.4,18.2,6.8,26.3c1.6-3.5,3.9-6.9,5.5-10.1
			c3.6-7,7.2-15.7,3-23.3C536.6,501.6,532.8,498.8,528.9,502.8z"/>
		<path fill="#99ADA4" d="M326.7,57c15.3-4.6,4.6-24.5,4.9-36.4c-7.8,3.6-16.8,11.7-17.4,20.3C313.8,47,318.1,59.5,326.7,57z"/>
		<path fill="#FEE6D1" d="M527.3,86.8c-2.7,3.3-6.6,5.5-10.2,7.6c-3.8,2.2-14.6,7.2-10.8,13.3c3.6,5.7,14,3.3,17.7-0.9
			C528.7,101.3,528.3,93.6,527.3,86.8z"/>
		<path fill="#E55028" d="M485.2,120.1c4-2.9,6.1-8.3,6.3-13.1c0.4-8.9-1.5-18.7-6.7-26.1c-0.3,5.2-3.7,10-6.4,14.2
			c-3.3,5.1-9.7,13.4-6.1,19.8C474.7,119,480.4,123.6,485.2,120.1z"/>
		<path fill="#FEE6D1" d="M594.7,185.6c-5.2,11.2,8.3,13.9,17.3,13.9V174C604.8,174.7,597.8,178.8,594.7,185.6z"/>
		<path fill="#99ADA4" d="M68.3,69.8c6.8-5.2,17-14.7,13.2-24.5c-3.2-8.3-15.7-0.4-19.4,3.4c-8.5,8.8-9.8,20.9-9.9,32.6
			C57.2,77,63.1,73.8,68.3,69.8z"/>
		<path fill="#E55028" d="M537.8,100.4c-2.1,6.9-4.9,13.9-5,21.1c-0.1,3.8,0.5,8.7,4.3,10.7c2.3,1.2,7.2,2.7,8.9-0.1
			c3.1-5,0.1-13.2-1.8-18.2C542.8,109.6,540.9,104.2,537.8,100.4z"/>
		<path fill="#FEE6D1" d="M360.1,158c6.2,3,16.1,1.3,16.3-7.4c0.2-6-2.6-11.6-5.2-16.8c-4.7-9.5-8.8-19.1-10.8-29.4
			c-4.9,7.5-8.8,15.9-10.3,24.7C348.5,138.9,349.8,153,360.1,158z"/>
		<path fill="#E55028" d="M149.8,98.6c9.9-0.1,7.3-14.2,5.2-20c-2.1-5.9-5.1-11.3-8.5-16.6c-1.2,6-3.6,11.8-4.6,17.9
			C140.8,85.8,140.7,98.7,149.8,98.6z"/>
		<path fill="#E55028" d="M569.8,500.5c-8.9-4.5-11,10.1-10.8,15.9c0.3,9.5,7.3,17.7,15,23.2c-1.2-4.5,0.1-10,0.7-14.1
			C575.8,517.8,578.6,505,569.8,500.5z"/>
		<path fill="#E55028" d="M114.7,72.4c0.3,4.1,3.4,12.7,9,9.5c7.4-4.2,9.9-13.3,8.9-21.3c-0.8-6.5-2.6-16.2-8-20.8
			c0.3,6.7-3.1,12.9-5.9,19C116.7,62.9,114.4,67.7,114.7,72.4z"/>
		<path fill="#FEE6D1" d="M179.3,97.4c5.9,1,11.2-3.1,13.6-8.3c2.7-5.9,2.6-12.6,1.5-18.9c-2-11.7-6.7-23.4-14.6-32.3
			c-0.2,3.1-2,6.1-3.4,8.6c-2.7,4.6-5.4,9-7.1,14.1c-2.3,6.7-4.2,14.4-2.4,21.5C168.4,88.3,172.3,96.3,179.3,97.4z"/>
		<path fill="#E55028" d="M487.3,210.6c1.4,3.7,1.2,7.9,0.9,11.9c-0.3,4.8-2.6,19,5.9,18.5c4.6-0.3,9.8-4,9.8-9
			c0-3.5-1.4-6.8-3.3-9.6C497.3,217.6,492.7,212.9,487.3,210.6z"/>
		<path fill="#99ADA4" d="M428,383.8c1-4.4,0.4-9.1-0.9-13.4c-2.7-8.6-7.6-17.6-15.8-22c-0.3,6.8-1.1,13.7-1.2,20.5
			c-0.1,7-0.4,18.5,6.8,22.6C422.5,394.6,426.9,388.9,428,383.8z"/>
		<path fill="#FEE6D1" d="M451.1,434c-4.1-5.8-4.6-14.5-6.7-21c-1.2-3.7-2.7-9-6.3-11.1c-2.7-1.6-6.8-1.6-9,0.9
			c-4.5,5.4-1.4,15,1.8,20.2C435.4,430.3,442.5,435.1,451.1,434z"/>
		<path fill="#99ADA4" d="M551.6,214.7c6.2-3.9,17.2-13.6,12.1-20.5c-3.3-4.5-8.6,3.1-10,5.9C551.3,204.4,550.9,209.7,551.6,214.7z"
			/>
		<path fill="#E55028" d="M458.3,330.8c-4.5-8.5-15.4,2.6-18.3,7.3c-5.4,9-3.8,20.4,0.2,29.8c2-4.8,5.8-8.8,9.4-12.7
			C455.3,349,463.1,339.6,458.3,330.8z"/>
		<path fill="#FEE6D1" d="M419.6,339.8c10.2-1.4-2.6-17-5.5-19.7c-4.3-4-9-7.6-13.5-11.3c1.5,5.2,1.9,10.8,3.3,16.1
			C405.8,331.6,411,340.8,419.6,339.8z"/>
		<path fill="#B3D3C2" d="M332.3,374.2c5.1,1,11.3,0.5,14.9-3.8c4-4.7,3.5-10.8,1.3-16.2c-4.7-11.4-14.2-19.6-24.4-26.1
			C319.9,343.4,309.4,369.6,332.3,374.2z"/>
		<path fill="#FEE6D1" d="M398,380c1.9-2.1,4.1-5.2,2-7.8c-4.1-5.5-14.4-6.5-20.6-7.4c-5.8-0.8-11.6-1.2-17.4-1.7
			c1.8,9.5,13.6,17.5,22.1,19.7C389.1,384.1,394.3,384.1,398,380z"/>
		<path fill="#FEE6D1" d="M480.7,345.8c2.1-2,3.8-4.3,3.2-7.4c-0.5-2.3-1.6-5.8-4-6.8c-5.2-2.2-7.4,7.7-8.5,10.9
			c-0.9,2.8-1.7,5.7-3.4,8.1C472.5,351,477.7,348.8,480.7,345.8z"/>
		<path fill="#E55028" d="M370.1,230.6c0,5.8-0.7,12,2,17.4c2,3.9,4.7,8.4,8.8,10.5c4.8,2.5,9.2-1,10.6-5.9
			c2.3-8.5-3.3-17.3-8.7-23.4c-4.1-4.7-9.3-9.8-15.2-12.5C369.5,221.1,370.1,225.7,370.1,230.6z"/>
		<path fill="#99ADA4" d="M382,405.8c-1.2-5.2-4.3-12.3-9.3-14.9c-5.3-2.7-11-3.6-16.8-4.5c2.5,3.6,3.6,8.8,4.7,12.5
			c2,6.7,3.6,15.3,8.4,20.7c2,2.3,4.5,3.2,7.3,1.5C381.6,417.8,383.4,411.8,382,405.8z"/>
		<path fill="#FEE6D1" d="M408.9,133.4c2.7,4.1,7.5,6.7,12.5,6.3c14.3-1.1,17.2-18.2,14.5-29.6c-2.7-11.3-8.4-21.4-14.3-31.3
			c-1.2,6.2-1.8,12.5-4.3,18.3c-2.5,6-6.2,11.5-8.5,17.5C406.6,120.5,405.2,127.9,408.9,133.4z"/>
		<path fill="#E55028" d="M395.4,153.2c5,0.8,6.2-5.4,5.1-9.1c-1.1-3.6-2.8-6.9-5.1-9.9c-3.6-4.7-7.9-9-12.9-12.1
			c1.6,4.2,2.2,8.8,2.9,13.3C386.3,141,388.3,152.1,395.4,153.2z"/>
		<path fill="#E55028" d="M394.4,354.5c16.7-5.9-6.8-25.7-16.2-31.9c-1.2,6.1,0.4,13.3,2.3,18.9C382.3,347,386.8,357.2,394.4,354.5z
			"/>
		<path fill="#E55028" d="M429.4,174.7c-7.9-5.6-17.7-9-27.5-9.3c4.6,5.5,8.1,12,12.3,17.8c2.7,3.8,5.8,8,9.7,10.6
			c2.9,1.9,9,4.9,12.1,1.8C442.1,189.3,434.7,178.5,429.4,174.7z"/>
		<path fill="#B3D3C2" d="M360.2,180.9c-5.5-5-12-8.7-18.8-11.7c1.1,5.7,2,11.5,4.1,16.9c1.4,3.7,3.4,7.5,6.6,10.1
			c2.9,2.4,7.9,5.5,11.8,4.5C373.1,198.2,363.9,184.3,360.2,180.9z"/>
		<path fill="#99ADA4" d="M504.6,285.9c-0.9-3-2.9-6.8-6.8-5.9c-14.6,3.8-14.2,27-11.6,38.7c6.9-4.2,13.2-10.2,16.5-17.5
			C504.9,296.5,506.2,290.9,504.6,285.9z"/>
		<path fill="#99ADA4" d="M379.8,194.3c1.1,5.3,2,11.2,5,15.9c2.7,4.3,8.9,9.4,14.5,8c10.8-2.6,10.1-19.7,5.6-27.1
			c-7.3-12.2-21.8-18.6-35.5-20.2C376.1,176.6,378.1,185.7,379.8,194.3z"/>
		<path fill="#E55028" d="M298.8,152.3c2.3,7.3,6.1,14.4,10.4,20.6c3.9,5.5,14.4,17.1,20.5,7.1c4.5-7.4-7.6-15.2-12.7-18.4
			C311.4,158,305.2,154.6,298.8,152.3z"/>
		<path fill="#FEE6D1" d="M493.5,271.2c3-1.8,6.1-3.8,8.4-6.6c1.8-2.1,5.6-8.1,2.8-10.7c-4.5-4.3-12.9,1.5-15.9,5
			c-5,5.9-8.4,13.2-8.8,20.9C484.1,276.3,488.9,274,493.5,271.2z"/>
		<path fill="#E55028" d="M425,152.8c6.9,4.6,12.3,12.3,20.6,13.8c3.6,0.7,9.1-1.8,7.7-6.3c-1-3.3-3.8-6-6.8-7.4
			C439.4,149.5,432.2,151,425,152.8z"/>
		<path fill="#E55028" d="M487.5,178c-1.9,2.9-4.2,5.9-5.3,9.2c-1,2.8-2.3,7.7,0.2,10.1c6.1,5.8,11.7-6,12.4-10.4
			c1-6.6,0.3-13.5-1.9-19.9C491.9,171,489.8,174.5,487.5,178z"/>
		<path fill="#E55028" d="M457.1,310.6c0.7,4,2.3,9.6,6.4,11.3c3,1.3,6.5,0.6,8-2.5c2.9-5.9,1.6-13.8,0.7-20
			c-0.8-5-1.9-9.9-2.8-14.8C462.3,291.5,455.1,300.1,457.1,310.6z"/>
		<path fill="#B3D3C2" d="M541.8,284c1.2-2.4,3.6-7.5,0.2-9.4c-5.8-3.2-13.8,1.2-17.6,5.5c-5.9,6.7-8.8,15.9-9.6,24.8
			c5.5-4.1,11.9-7.1,17.5-11.1C535.9,291.2,539.7,288.1,541.8,284z"/>
		<path fill="#99ADA4" d="M524.2,249.2c-6.6,6.9-10.2,15.9-10.5,25.3c4.5-4.5,10-8,14.8-12.1c3.2-2.7,6.6-5.5,8.8-9.2
			c0.9-1.6,4.4-8.3,1.7-9.7C534.9,241.5,526.9,246.4,524.2,249.2z"/>
		<path fill="#FEE6D1" d="M338.4,271.4c0.1,5.5,2,11.1,5.9,15.1s9.8,6.8,14.5,2.1c16.6-16.9-3.8-34.5-18.2-44.9
			c1,3.2,1.3,6.6,0.8,10.1C340.5,259.6,338.3,265.5,338.4,271.4z"/>
		<path fill="#E55028" d="M535.1,199.9c9.7,1.6,4.4-9.3,1-12.9c-4.2-4.5-9.3-7.3-15.2-8.7C524.1,185.8,526.6,198.5,535.1,199.9z"/>
		<path fill="#E55028" d="M515.1,169.5c7.4-0.3,11.3-8.4,12.3-14.7c1.2-7.3,0.2-14.6-1.7-21.6c-4.4,5.5-9.3,10.8-12.5,17.1
			C511.2,154.2,505.8,169.8,515.1,169.5z"/>
		<path fill="#FEE6D1" d="M530.2,216c-3,1.8-6,4.1-8.3,6.9c-4.5,5.4-6.8,11.7-8.5,18.3c4.3-2.2,8.8-4,13.2-6.1
			c5.4-2.7,14.1-7.2,15.3-14C543.2,213.8,534.9,213.2,530.2,216z"/>
		<path fill="#99ADA4" d="M545.9,166.4c0.8-2.8,0.7-5.3,0-8.2c-1.5-5.8-4-11.7-7.9-16.3c-1,4.7-2,9.5-2.6,14.3
			c-0.4,4-1.9,12.4,1.7,15.4C541.3,175.1,544.7,170.1,545.9,166.4z"/>
		<path fill="#99ADA4" d="M528.6,368c-0.6-4.6-1.7-13.6-7.4-14.8c-7.1-1.6-8.7,7.9-8.1,13.1c0.9,7.5,9.2,12.6,15.3,16.5
			C529.4,378,529.1,372.8,528.6,368z"/>
		<path fill="#99ADA4" d="M367,352.4c0.5-1.5,0.3-4.5,0.3-5.5c0-3.7-0.1-7.4-0.5-11.1c-0.7-8.1-1.6-16.9-4.7-24.5
			c-1.3-3.1-4.6-7.5-8.5-4.6c-3.6,2.6-4.6,8.3-4.7,12.4C348.5,332.2,357.7,343.9,367,352.4z"/>
		<path fill="#E55028" d="M531.1,315.2c-0.6-1.7-3.9-6.8-6.1-4.3c-3.2,3.5-3.3,10.2-3.3,14.6c0,6.1,1.2,13,6.2,16.9
			c0.7-5.3,2.5-10.5,3.3-15.8C531.8,323.1,532.4,318.8,531.1,315.2z"/>
		<path fill="#99ADA4" d="M557,123.9c11.3,2.7,9.9-15.6,8.5-24.5C560.2,104.8,548.3,121.8,557,123.9z"/>
		<path fill="#E55028" d="M422.2,208.3c2.7,7.9,3,16.4,4.8,24.5c2.1,9.5,7.2,21.5,18.9,21.3c5.4-0.1,9.2-3.9,9.4-9.3
			c0.2-5.3-1.8-9.9-5-14C442.9,221.1,432.6,214.3,422.2,208.3z"/>
		<path fill="#E55028" d="M429.1,313.1c-0.1,2.7-0.3,6.8,1.9,8.9c3.1,3,8.5,1,10.3-2.4c2.1-4,2.1-8.9,1.4-13.2
			c-0.8-4.6-2.3-8.9-5.6-12.4c-1.8-1.9-3.8-3.7-5.8-5.5c0.4,4.2-0.5,9-1,12.6C429.8,305.1,429.2,309.1,429.1,313.1z"/>
		<path fill="#99ADA4" d="M464.6,213.9c4,1.4,9.7,2.3,10.6-3.2c0.7-3.9-0.2-8.1-1.6-11.7c-4-10.2-13.4-17.6-23.6-21.3
			C457,188.4,450.3,209,464.6,213.9z"/>
		<path fill="#99ADA4" d="M452.9,285.2c5.4-10.2-9.2-17.3-17.5-21.4c0.1,5,0.7,10.2,2.9,14.7c1.4,2.7,3.3,5.7,6,7.2
			C446.8,286.9,451.1,288.5,452.9,285.2z"/>
		<path fill="#E55028" d="M387.7,308.3c1.5-6.1-0.3-13.1-2.1-19c-1.5-4.9-3.3-10.4-6.2-14.8c-5,6.9-9.5,17-7.6,25.4
			c0.9,3.8,2.7,8,5.8,10.6C381,313.4,386.4,313.3,387.7,308.3z"/>
		<path fill="#FEE6D1" d="M475.4,224.3c-6.6-2.3-13.5-2.1-20.4-2.7c3.9,5.7,9.4,10.2,16.4,11.7c2.2,0.5,6.6,1.1,8.2-0.9
			C482.6,228.7,478.3,225.3,475.4,224.3z"/>
		<path fill="#E55028" d="M332,217.9c3.2,6.9,9.8,15.3,18.5,14.5c12.5-1.2,1.3-16.8-3-20.9c-6.2-5.9-13.6-10.1-20.5-15.2
			C327.5,203.7,328.9,211.3,332,217.9z"/>
		<path fill="#99ADA4" d="M416.3,302.8c8.5-5.7-0.6-19.5-4.6-25c-4.2-5.8-9.1-11-13.1-16.9c-4.3,8.8-4.8,20.7,0.2,29.2
			C401.1,294,410.4,306.8,416.3,302.8z"/>
		<path fill="#FEE6D1" d="M425.4,257.8c-0.9-4.6-2.7-8.8-4.8-12.9c-3.2-6.2-7-12.1-9.6-18.6c-2.3,9.8-4.9,21.4-0.5,30.4
			c1.9,3.8,7,11.9,12.2,11.4C426.4,267.6,425.8,260.2,425.4,257.8z"/>
		<path fill="#E55028" d="M463.8,274.3L463.8,274.3L463.8,274.3c3.6-2.6,6.6-6.3,8.9-9.9c2.5-4,6.3-10.1,4.7-15
			c-2.7-8.8-9.3-1.8-11.6,3.1c-3.2,6.9-1.6,14.3-2,21.6C463.8,274.2,463.8,274.2,463.8,274.3z"/>
		<path fill="#99ADA4" d="M161.1,136.5c10.7-3.2,8.6-16.6,0.4-21.4c-8.8-5.2-20.1-0.9-28.3,4.3c4.3,1.2,7.9,4.5,11.1,7.6
			C148.5,131.1,154.4,138.5,161.1,136.5z"/>
		<path fill="#E55028" d="M401.5,15.6c2.4,4.2,7,9.2,12.4,8.8c7.8-0.6,8.7-9.4,6.8-15.3c-1-3.1-2.4-6.2-4-9.1h-20.1
			c0.2,0.9,0.4,1.8,0.6,2.6C398.1,7,399.2,11.7,401.5,15.6z"/>
		<path fill="#FEE6D1" d="M359.3,14.1c-4.9,5.7-9,13-8.3,20.8c0.5,5.6,2.9,13.3,8.5,15.9c12.9,5.9,21-18,22.9-26.7
			c1.6-7.8,2.4-16,1.6-24h-9.4c-0.6,0.5-1.2,0.9-1.8,1.4C368.1,5.2,363.3,9.4,359.3,14.1z"/>
		<path fill="#E55028" d="M481.5,590.8c-1.8,5.4-2.8,11.3-2.7,16.9c0,1,0.1,2.6,0.3,4.4h12.3c-0.8-2.8-2-5.5-3-7.3
			C485.8,600.1,483,595.6,481.5,590.8z"/>
		<path fill="#E55028" d="M487.6,11.4c5-1.7,5.1-6.7,3.7-11.4H479C479.7,5.7,481.6,13.4,487.6,11.4z"/>
		<path fill="#E55028" d="M457,14.3c-0.4,4.5-0.5,9.1,0.9,13.5c1.3,4.3,5.4,10.4,10.8,6.9c7.7-5.1,5.5-17.4,2.1-24.4
			c-1.9-3.8-4.2-7.2-7-10.3h-6.3c0,0.2,0.1,0.4,0.1,0.7C458.1,5.2,457.4,9.7,457,14.3z"/>
		<path fill="#FEE6D1" d="M446.7,16.5c4.8-3.7,3.4-10.7,0.6-16.5H426c0.6,1.4,1.2,2.8,1.9,4.2C430.6,9.3,439.4,22,446.7,16.5z"/>
		<path fill="#FEE6D1" d="M596.1,579.5c-1.4,4.9,3.8,9.6,8,10.9c2.6,0.8,5.2,1.2,7.9,1.3V572c-1.9,0.2-3.9,0.6-5.7,1.1
			C603,574,597.2,575.6,596.1,579.5z"/>
		<path fill="#FEE6D1" d="M503.5,612h10c-0.9-3.3-1.9-6.7-2.9-10C507.9,605.1,505.5,608.5,503.5,612z"/>
		<path fill="#E55028" d="M523.4,578.2c-3.8,6.8-2.1,14.3-0.3,21.5c3.8-2.7,7.2-6.3,9.8-10c2.9-4.1,6.6-10.1,4.2-15.2
			C533.4,566.5,526.3,573,523.4,578.2z"/>
		<path fill="#B3D3C2" d="M309.9,19.4L309.9,19.4c4.2-3.5,9.3-5.9,13.9-8.9c3.7-2.4,9.1-6,11.2-10.5h-21.9
			c-2.3,5.8-2.7,12.6-2.7,18.4C310.4,18.8,310.2,19.1,309.9,19.4z"/>
		<path fill="#E55028" d="M530.1,612H569c3-5,6.1-10,10.1-14.3C563.4,590.5,536.9,595,530.1,612z"/>
		<path fill="#B3D3C2" d="M468.5,468.5c-0.1,4.1-2.2,8.4-3.6,12.1c-2.5,6.3-5.2,12.6-7.3,19c-3.4,10.1-8.4,29.9,8.5,30
			c13.7,0.1,14.7-19.1,14-28.9C479.4,490.5,476.9,475.6,468.5,468.5z"/>
		<path fill="#FEE6D1" d="M283.2,71.4c-4.5,7.7-4,26.1,8.9,25.1c22.5-1.8,17.3-28.7,12.9-43.8C298.3,59.5,288,63,283.2,71.4z"/>
		<path fill="#99ADA4" d="M484,67c8.5-0.1,8.8-11.9,7.6-17.8c-1.3-6.9-3.9-13.3-6.3-19.9c-2.9,5.7-6.3,11.4-7.9,17.7
			c-1.1,4.2-1.6,8.7-0.2,12.9C478.3,62.8,480.3,67,484,67z"/>
		<path fill="#FEE6D1" d="M612,602.2c-4.7-0.2-9.4,0.5-14.1,2.3c-4.4,1.7-8.4,4.3-11.7,7.5H612V602.2z"/>
		<path fill="#E55028" d="M354.1,0h-10.8c-0.1,2.1-0.1,4.1-0.1,6.2C347.2,5.1,351,2.8,354.1,0z"/>
		<path fill="#FEE6D1" d="M599.9,394.4c-4.2,5.4-11.5,18.6-0.2,21.5c7.4,1.9,10.8-12,12.1-16.9c0-0.2,0.1-0.3,0.1-0.5v-16.6
			C607.6,385.8,603.4,389.9,599.9,394.4z"/>
		<path fill="#FEE6D1" d="M607.3,470.2c1.7,1.1,3.3,1.3,4.7,0.9v-42.7c-3,4.9-5.8,9.9-7.9,15.2C600.9,451.8,598.1,464.5,607.3,470.2
			z"/>
		<path fill="#E55028" d="M602.1,503.3c-8.5,10.5-16,30.7-4.6,42.1c4.1,4,9.6,5.1,14.5,2.9v-55.2
			C608.5,496.3,605.1,499.6,602.1,503.3z"/>
		<path fill="#B3D3C2" d="M557,542.1c-13,1.3-12.2,17.3-8.4,26.4c5.6,13.5,19.4,13.6,31.9,15.3c-2.5-7.5-4.4-15-6.7-22.6
			C571.3,553.8,567.1,541.1,557,542.1z"/>
		<path fill="#FEE6D1" d="M553.6,487.5c2.5-4.8,6.7-12.8,3.4-18.1c-2.1-3.3-7.3-6-10.8-3.3c-2.7,2.1-4.1,5.7-4.8,8.9
			c-1.8,8.8,1.6,16,5.8,23.3C549.2,494.6,551.7,491.1,553.6,487.5z"/>
		<path fill="#99ADA4" d="M491.9,427.3c-1.6-4.3-6.4-10-11.6-9.4c-8.5,1-10.5,15.7-10.6,22.3c-0.1,11.9,6.8,22.5,14,31.7
			c1.3-9.3,5.6-18.1,7.8-27.2C492.7,439.1,494,432.8,491.9,427.3z"/>
		<path fill="#FEE6D1" d="M498.2,27.7c1.2,3.4,4.6,9,9.1,7.8c9.9-2.8,9.6-17.1,8.4-25.1c-0.5-3.5-1.3-7-2.2-10.4h-10
			c-2.4,4.3-4.2,8.9-5.2,13.7C497.4,18.2,496.6,23.3,498.2,27.7z"/>
		<path fill="#FEE6D1" d="M489.6,524.8c11-3.3,19.3-18.7,19.3-29.2c0-5.2-2.3-10.5-6.9-13.3c-2.7-1.6-4.6-0.3-5.9,2.3
			c-3.8,7.3-4.2,16.6-5,24.6C490.6,514,490.9,519.8,489.6,524.8z"/>
		<path fill="#B3D3C2" d="M590.9,341.8c-3.9,8.1-5.3,20.7,0.4,28.4c5.8,7.8,14.4,2.7,20.7-3.8v-44.7
			C603.1,326.5,595,333.3,590.9,341.8z"/>
		<path fill="#E55028" d="M538.3,24.4c7.4,1.9,14.4-2.1,19.2-7.5c4.6-5.1,8-11.1,11.5-16.9h-38.8c-0.9,2.3-1.5,4.9-1.6,7.7
			C528.3,14.5,530.8,22.6,538.3,24.4z"/>
		<path fill="#FEE6D1" d="M580,9.1c-2.7,6.4-4.6,16.3,2.8,20.4c9.8,5.4,21.2-6.3,29.2-13.1V0h-25.8C583.6,2.6,581.5,5.7,580,9.1z"/>
		<path fill="#99ADA4" d="M535.6,62.5c3.9,0.6,7.9-3.4,8.1-7.2c0.4-10.8-10.6-18.4-16.7-26.5c-1.8,8.5-5.4,17.8-0.4,25.8
			C528.5,57.6,531.6,61.9,535.6,62.5z"/>
		<path fill="#B3D3C2" d="M506.6,81.9c8.9,4.3,11.5-5.5,10.7-12.5c-1-9.3-6.5-16.3-13.3-22.1c-0.1,5.3-1.4,10.7-1.8,16
			C501.7,68.8,500.6,78.9,506.6,81.9z"/>
		<path fill="#B3D3C2" d="M559.3,260c-3.3,11.7,1.6,22.3,9,31c1.1-4.3,1.8-8.8,3.2-13c1.5-4.3,3.5-8.4,5.4-12.6
			c2.3-5.1,5.5-11.1,5.3-16.9c-0.1-4.3-2.6-10.1-7.8-7.4C567.6,244.6,561.3,252.7,559.3,260z"/>
		<path fill="#E55028" d="M557.6,343.3c15.1,9.4,22-15.9,26.5-27.5C573.5,319.1,545.2,335.6,557.6,343.3z"/>
		<path fill="#E55028" d="M579.1,379.8c-7.3-1.7-9.4,7.6-9.1,13.1c0.4,7.9,5.2,13.9,11.5,18C580.9,401.4,591.2,382.5,579.1,379.8z"
			/>
		<path fill="#B3D3C2" d="M574.8,203c-3.4,2.3-2.5,6.3,0.8,8.4c6.4,4,16.3,2.5,21.1-3.5c-4.3-2.1-8.6-4.7-13.2-5.6
			C580.7,201.7,577.3,201.3,574.8,203z"/>
		<path fill="#E55028" d="M292.4,14.2c8.8,1.2,9.7-7.6,7.6-14.2h-17.3C283.5,5.7,285.9,13.3,292.4,14.2z"/>
		<path fill="#E55028" d="M455.6,605c0.5,2.4,1.4,4.7,1.8,7.1h6.3C461.4,609.3,458.6,607,455.6,605z"/>
		<path fill="#E55028" d="M138.1,558.8c-5.6,2-10.4,11.6-10.4,17.4c-0.1,9.3,5.6,14.6,11.5,20.5c1.3-6.4,3.7-12.6,5-19.1
			c0.8-3.9,1.7-8.4,0.8-12.4C144.3,562.5,141.8,557.5,138.1,558.8z"/>
		<path fill="#FEE6D1" d="M119.6,597.1c1.5,4.7,1.4,9.9,1.2,14.9h15.8C132.5,605.5,126.7,600,119.6,597.1z"/>
		<path fill="#B3D3C2" d="M116.1,559.8c-13.7,3.8-15,21.6-11.3,33.8c2.3-5.5,4.9-10.7,8.7-15.5c2.9-3.7,6.8-8.1,6.8-13.1
			C120.3,562.3,119.6,558.8,116.1,559.8z"/>
		<path fill="#FEE6D1" d="M181.4,585.5c-3.2-10-16.7-1.8-21.4,2.6c-6.6,6-8.5,15.1-8.4,24h10C172.4,604.8,185.4,598,181.4,585.5z"/>
		<path fill="#B3D3C2" d="M199.4,585c8.5-3.1-2-21.7-7.7-28C190.6,564.8,188.5,589,199.4,585z"/>
		<path fill="#FEE6D1" d="M129.8,28.1c11.2,3.1,13.8-11.6,11-19.4c-1.1-3-2.5-6-4.3-8.8h-15.8c-0.1,1.8-0.2,3.5-0.3,5.3
			C120.1,13.5,119.9,25.4,129.8,28.1z"/>
		<path fill="#E55028" d="M180.4,612H191c-0.8-2.7-1.8-5.3-3-7.9C185.6,606.5,182.8,609.1,180.4,612z"/>
		<path fill="#99ADA4" d="M73.3,22.2c4.9,6.5,11.4,3.6,15.1-2.7c3.2-5.5,4.7-11.9,5-18.3c0-0.4,0-0.8,0-1.2H71
			C68.3,7.3,68.1,15.3,73.3,22.2z"/>
		<path fill="#E55028" d="M50.4,38.4c3.2-3.6,7-7.2,9.1-11.6c2.4-5-1-10-6.8-9.4c-8,0.9-11.3,12.1-12.4,18.6
			c-1.1,6.5-1.6,15,1.8,21.2C44,50.5,45.9,43.6,50.4,38.4z"/>
		<path fill="#FEE6D1" d="M9.4,591.3c9.4-0.9,20.3-4.2,29.9-2.7c-6.4-9.9-20.2-16.8-31.6-17c-2.5,0-5.1,0.1-7.7,0.4v19.6
			C3.1,591.8,6.3,591.6,9.4,591.3z"/>
		<path fill="#FEE6D1" d="M0,612h26.1c-7.8-5.5-16.8-9.4-26.1-9.8V612z"/>
		<path fill="#FEE6D1" d="M161.6,0h-10c0,2.6,0.2,5.1,0.5,7.5C154.5,4.9,157.9,2.4,161.6,0z"/>
		<path fill="#99ADA4" d="M57.4,565.1c3.3-4.2,4.5-9.9,4.7-15.1c0.5-9.7-1.1-19.4-1.4-29.1c-3.7,6.1-8.4,11.6-12,17.8
			c-4.5,7.7-8.6,19.3-2.4,27.3C49.5,570.3,54.5,568.8,57.4,565.1z"/>
		<path fill="#99ADA4" d="M89.6,580.5c-2.7,8.2-8.9,14.8-13.7,21.9c-2,2.9-3.7,6.2-5,9.5h22.4C93.6,601.5,91.8,591,89.6,580.5z"/>
		<path fill="#E55028" d="M96.3,49.4c4,2.5,9.5,4.4,13.2,0.3c2.9-3.2,4.3-7.5,5-11.7c1.5-10.3-2.7-20-3.4-30.2
			C101.8,16.6,80.4,39.4,96.3,49.4z"/>
		<path fill="#E55028" d="M55.1,588c-2.6,3-5.8,6.8-6.3,10.9c-0.5,3.7,2.8,7.6,6.7,7.6c7,0,9.8-12.1,11.3-17.2
			c1.3-4.7,2.1-9.9,3.8-14.6C64.7,577.8,59.3,583.2,55.1,588z"/>
		<path fill="#99ADA4" d="M159.8,47.4c3.2-3.2,4.6-7.6,4.9-12.1c0.4-6.4-0.5-12.7-1.7-19c-2.3,4.3-6,7.8-9.3,11.2
			c-4.5,4.7-12.3,12.8-7,19.7C150.1,51.7,156.1,51.1,159.8,47.4z"/>
		<path fill="#E55028" d="M357.1,609c3.4-3.9,8.6-12.7,3.4-17.4c-5.9-5.3-13.3,3.2-15.1,8.4c-1.3,3.9-1.9,7.9-2.1,12h10.8
			C355.2,611,356.2,610,357.1,609z"/>
		<path fill="#99ADA4" d="M260.1,57.7c-2-4.2-2.7-9.2-3.9-13.5c-1.5-5.3-3.4-13.9-9.8-15.3c-8-1.7-9.6,9.7-6.6,15
			C244.1,51.5,252.2,54.8,260.1,57.7z"/>
		<path fill="#B3D3C2" d="M243.6,17.7c5.8-3.6,7.8-11,8.5-17.7h-20.3c-0.2,0.7-0.4,1.4-0.6,2.1C229.3,10,232.5,24.7,243.6,17.7z"/>
		<path fill="#B3D3C2" d="M333.7,563.8c-7.3-2.2-15.6,5.3-19.9,10.3c-5.1,6.1-9.2,14.3-7.4,22.3c6.2-4.4,12.3-8.3,19.1-11.7
			c4.3-2.1,10.4-5,11.8-10C338.4,571.2,337.8,565.1,333.7,563.8z"/>
		<path fill="#FEE6D1" d="M374.7,612h9.4c-0.2-2.6-0.6-5.2-1.2-7.7C380.8,607.3,377.7,609.8,374.7,612z"/>
		<path fill="#FEE6D1" d="M261.8,24.9c1.8,3.2,5.4,6,8.6,2.4c6.6-7.5,2.9-18.1-1.8-27.3h-6.1c-0.9,4.4-1.8,8.7-2.1,13.2
			C260,17.1,259.7,21.3,261.8,24.9z"/>
		<path fill="#E55028" d="M401.3,594c-3.6-2.4-7.5-3.9-11.3-6c2.8,7.8,4.7,16,6.5,24.1h20.1c-0.9-1.7-2-3.4-3.1-4.9
			C410.2,602.3,406.2,597.2,401.3,594z"/>
		<path fill="#E55028" d="M218,590.1c-5,5.5-10.6,11.4-12.6,18.7c-0.3,1-0.5,2.1-0.7,3.2h13.8C220,605.1,218.8,596.8,218,590.1z"/>
		<path fill="#FEE6D1" d="M422.2,592.1c0.2,6.7,1.3,13.6,3.8,19.9h21.3c-1.5-3.1-3.4-5.8-5-7.5C436.7,598.6,429.7,595,422.2,592.1z"
			/>
		<path fill="#B3D3C2" d="M251.9,587.3c-8.1,6.7-16.8,14.5-20.1,24.7h20.3c0.2-1.5,0.3-3,0.4-4.4
			C252.8,600.8,252.4,594.1,251.9,587.3z"/>
		<path fill="#B3D3C2" d="M218.8,542c-1.7,6-3.7,12-4,18.3c-0.2,3.8,0,8.1,2.2,11.4c2.1,3,7,7.2,11,6c9-2.8,1.9-17-0.9-21.7
			C224.5,551.2,221.4,546.8,218.8,542z"/>
		<path fill="#E55028" d="M222.9,48.3c3-7.3,6.1-17.7-0.3-24.3c-4.4-4.5-10.3-5.9-15.6-1.8c-4.4,3.4-7.5,8.6-7.5,14.3
			c0,11.8,6.2,22.6,13.7,31.4C216.3,61.3,220.2,55.1,222.9,48.3z"/>
		<path fill="#E55028" d="M183.3,25.2c8.6-1.1,10.7-10.7,9.5-17.9c-0.4-2.5-1-4.9-1.8-7.3h-10.6c-2.7,3.3-4.8,7-5.1,11.2
			C175,15.9,176.5,26.1,183.3,25.2z"/>
		<path fill="#E55028" d="M282.9,595c-0.8,5.2-1.1,10.6-0.5,15.8c0.1,0.4,0.1,0.9,0.2,1.3h17.3c-0.6-1.8-1.4-3.4-2.3-4.6
			C293.7,602.2,288.2,598.6,282.9,595z"/>
		<path fill="#E55028" d="M205.1,6.9c1.7,4.3,6.2,4.4,9.3,1.2c2.1-2.2,3.4-5,4.1-8.1h-13.8C204.3,2.3,204.2,4.7,205.1,6.9z"/>
		<path fill="#B3D3C2" d="M335.5,605.5c-2.3-7.1-12.5-5.2-17-1.3c-2.4,2.1-4.2,4.9-5.4,7.9H335C335.9,610,336.2,607.8,335.5,605.5z"
			/>
		<path fill="#FEE6D1" d="M262.4,612h6.1c-1.5-2.8-3.1-5.6-4.5-8C263.6,606.8,263,609.3,262.4,612z"/>
		<path fill="#E55028" d="M156.4,452.5c-2.6-7.3-6.9-13.5-12.5-18.7c0.9,5.2-0.1,10.5-1.1,15.9c-0.8,4.5-1.8,9.4-0.6,14
			c1.1,4.3,4.2,10.7,9.2,11.7C162.2,477.5,158.2,457.5,156.4,452.5z"/>
		<path fill="#FEE6D1" d="M361.9,557.1c-7.4,4.4-10.8,12.8-12.4,20.9c5-2.9,10.8-3.8,16.4-5.5c3.7-1.1,7.8-2.5,10.3-5.6
			c1.9-2.4,4.9-7.9,2.8-11C375.5,551.2,365.8,554.8,361.9,557.1z"/>
		<path fill="#99ADA4" d="M270.5,531.2c-2.2,13-3.3,28.9,4.7,40c7.6,10.5,23.3,10.3,26.5-3.9C305.7,549.5,281.9,541.6,270.5,531.2z"
			/>
		<path fill="#E55028" d="M168.8,553.5c-5-2.3-10.1-4.4-14.5-7.7c2.8,10.1,3.1,23,16.5,23.1c5.4,0,12.7-3.2,7-9.2
			C175.3,557,172.2,555,168.8,553.5z"/>
		<path fill="#B3D3C2" d="M162.4,536.5c10,2.8,5.3-18.8,3.7-22.8c-3.7-9.1-9.7-16.9-16.3-24c2.1,8,1.6,16.2,2.1,24.7
			C152.3,521.3,154,534.1,162.4,536.5z"/>
		<path fill="#FEE6D1" d="M248.2,508.2c-2.4,5.1-8.5,19.8,0.3,22.4c15.2,4.6,13.8-32.5,16.6-42.3C257.3,491,251.5,501.2,248.2,508.2
			z"/>
		<path fill="#FEE6D1" d="M31.9,4.6C30.1,3,28.1,1.4,26.1,0H0v16.4c1.1-0.9,2.1-1.8,3.1-2.5C10.5,8.6,21.9,3.9,31.9,4.6z"/>
		<path fill="#99ADA4" d="M327.2,516.1c7.8-0.9,12.6-12.1,13.5-18.8c2.6-17.4-9.8-34-21.4-45.5c-9.6-9.5-21.2-18.8-34-24.1
			c6.2,8,10.6,17.2,13,27.3c2.1,9.1,2.3,18.7,4.7,27.7c2,7.4,5,14.7,9.1,21.2C315.1,508.6,320.5,517,327.2,516.1z"/>
		<path fill="#E55028" d="M219.7,460.5c3.7-1.5,6-6.8,4.7-10.5c-1.7-4.8-6.1-8.5-10.1-11.3c-5.9-4.2-12.5-8-19.4-10.7
			c1.3,6.4,5.2,13,8.4,18.4C205.8,450.5,213,463.1,219.7,460.5z"/>
		<path fill="#99ADA4" d="M188.2,474.5c3.3,1,7.9,1.9,11-0.2c3.3-2.2,4.4-7.3,2.1-10.6c-3.8-5.5-12.2-6.7-18.3-7.9
			c-4.4-0.9-9.3-1.4-13.5-3.2C173,462.1,177.8,471.2,188.2,474.5z"/>
		<path fill="#E55028" d="M240.3,539.8c-0.8,7.3-1.8,15,0.3,22.1c1.3,4.4,3.7,8.8,7.6,11.5c4.1,2.8,9.6,2.8,11-3.1
			c1.7-7.3-3.8-14.1-8.3-19.2C247.5,547.2,243.7,543.6,240.3,539.8z"/>
		<path fill="#E55028" d="M280.8,523.8c3.9,3.8,8.3,4.7,11.2-0.7c2-3.8,3-8.2,3.1-12.5c0.2-11.5-5.3-22.1-7.5-33.3
			c-3.2,7-6.7,13.9-9,21.2C275.9,506.8,273.8,517.1,280.8,523.8z"/>
		<path fill="#B3D3C2" d="M412.5,491.8c-4.4,6.1-10.4,13.6-8.8,21.7c0.4,2.2,1.3,6.2,4.4,5.9c1.9-0.2,3.7-1.4,5.1-2.7
			c3.7-3.6,6.1-8.3,7-13.4c1.4-7.7,0.5-15.5-0.6-23.2C417.9,484.2,415.2,488,412.5,491.8z"/>
		<path fill="#FEE6D1" d="M262.6,475.1c18-1.8,16.5-24.8,10.7-37c-9.1-19.5-29-33.1-47.5-43c1.1,3.2,1.8,6.5,2.5,9.8
			c2.8,14.7,3.8,29.8,8,44.2C239.8,461.6,247.1,476.8,262.6,475.1z"/>
		<path fill="#B3D3C2" d="M353.4,535c-5.3-9.6-19.1-0.7-26.7-5.3c-0.1,8,1.8,17.2,9.9,20.7C345.3,554,359.1,545,353.4,535z"/>
		<path fill="#FEE6D1" d="M131.5,480.2c-4.9,3.4-10.1,6.3-14.9,9.9c-3.4,2.6-14,10.1-9.9,15.5C117.5,519.8,136.2,493.1,131.5,480.2z
			"/>
		<path fill="#E55028" d="M426.6,559.5c-11.5,4.6,7.3,23.6,17.2,29.8C438.8,578.8,440.4,554,426.6,559.5z"/>
		<path fill="#E55028" d="M77.8,542c-3,8.4-2.4,24.1,10.8,20.7c9-2.3,12.1-12.7,13.8-20.8c1.5-6.9,2-14.2,3.9-21.1
			C95.8,525.8,81.8,530.8,77.8,542z"/>
		<path fill="#E55028" d="M377.3,516.8c-8.2,4.8-12.1,13.2-12,22.5c10.8-3.8,29.1-5.7,27.8-20.7C392.3,510,382,514.1,377.3,516.8z"
			/>
	</g>
</g>
</svg>
